<svg width="130" height="19" viewBox="0 0 130 19" fill="none" xmlns="http://www.w3.org/2000/svg">
<path d="M12.5646 12.2898L10.4226 10.2738C9.88262 11.0298 8.92862 11.5698 7.72262 11.5698C5.59862 11.5698 4.10462 9.98577 4.10462 7.66377C4.10462 5.41377 5.63462 3.75777 7.77662 3.75777C8.74862 3.75777 9.77462 4.13577 10.3506 4.92777L12.4386 2.83977C11.3766 1.61577 9.45062 0.967771 7.66862 0.967771C3.78062 0.967771 0.756621 3.57777 0.756621 7.66377C0.756621 11.6598 3.69062 14.3958 7.61462 14.3958C9.75662 14.3958 11.4486 13.5858 12.5646 12.2898ZM22.4774 5.08977H19.3454L17.5634 10.8498H17.5094L15.5114 5.08977H12.2354L15.9794 13.9098L15.6914 14.6478C15.4034 15.4218 15.0974 15.8538 14.1794 15.8538C13.8914 15.8538 13.5134 15.7818 13.2254 15.6918L12.9014 18.1758C13.3334 18.2838 13.9634 18.3738 14.5214 18.3738C16.7714 18.3738 17.7434 17.2758 18.4634 15.4038L22.4774 5.08977ZM33.6083 9.53577C33.6083 7.03377 31.9883 4.83777 29.3783 4.83777C28.0643 4.83777 27.1463 5.44977 26.6423 6.04377H26.6063V0.445771H23.6543V14.0538H26.3723V12.8838H26.4083C26.9843 13.7838 28.1543 14.3058 29.3423 14.3058C32.0423 14.3058 33.6083 12.0378 33.6083 9.53577ZM30.7643 9.53577C30.7643 10.7058 30.0443 11.8578 28.6403 11.8578C27.3083 11.8578 26.4803 10.7238 26.4803 9.55377C26.4803 8.41977 27.3083 7.24977 28.6403 7.24977C30.0443 7.24977 30.7643 8.38377 30.7643 9.53577ZM37.8595 8.54577C37.9315 7.62777 38.7595 6.83577 39.8935 6.83577C41.0635 6.83577 41.6575 7.60977 41.6575 8.54577H37.8595ZM44.3755 9.67977C44.3755 6.61977 42.5215 4.80177 39.8755 4.80177C37.1575 4.80177 35.0335 6.67377 35.0335 9.60777C35.0335 12.6318 37.2655 14.3418 39.9655 14.3418C41.7835 14.3418 43.1875 13.6578 44.0335 12.4338L41.9815 11.1378C41.5855 11.6778 40.9375 12.0738 40.0015 12.0738C38.9395 12.0738 37.9495 11.3718 37.8595 10.3818H44.3575C44.3755 10.1658 44.3755 9.91377 44.3755 9.67977ZM52.1462 4.90977C52.0022 4.85577 51.7502 4.83777 51.5162 4.83777C50.4182 4.83777 49.5362 5.48577 49.0862 6.38577H49.0502V5.08977H46.2062V14.0538H49.1582V9.44577C49.1582 8.70777 49.6802 7.41177 51.2642 7.41177C51.4982 7.41177 51.7502 7.42977 52.0202 7.50177L52.1462 4.90977ZM69.1289 14.0538V1.30977H66.0509V6.13377H61.0829V1.30977H58.0049V14.0538H61.0829V8.72577H66.0509V14.0538H69.1289ZM80.661 5.08977H77.529L75.747 10.8498H75.693L73.695 5.08977H70.419L74.163 13.9098L73.875 14.6478C73.587 15.4218 73.281 15.8538 72.363 15.8538C72.075 15.8538 71.697 15.7818 71.409 15.6918L71.085 18.1758C71.517 18.2838 72.147 18.3738 72.705 18.3738C74.955 18.3738 75.927 17.2758 76.647 15.4038L80.661 5.08977ZM91.3059 13.2078V5.08977H88.5159V6.24177H88.4799C87.8499 5.28777 86.7339 4.83777 85.6179 4.83777C82.9179 4.83777 81.3519 7.05177 81.3519 9.53577C81.3519 12.0198 82.9179 14.1438 85.6359 14.1438C86.8239 14.1438 87.7959 13.6758 88.3539 12.9558H88.4079V13.4958C88.4079 14.9898 87.5979 15.9978 85.8699 15.9978C84.8619 15.9978 83.7639 15.6198 82.8999 14.8638L81.4239 16.9698C82.6299 17.8698 84.4659 18.3738 86.0319 18.3738C89.2179 18.3738 91.3059 16.7178 91.3059 13.2078ZM88.4979 9.51777C88.4979 10.7418 87.6699 11.8038 86.3199 11.8038C84.9879 11.8038 84.2139 10.7058 84.2139 9.51777C84.2139 8.27577 84.9879 7.24977 86.3199 7.24977C87.6519 7.24977 88.4979 8.29377 88.4979 9.51777ZM96.8536 2.22777C96.8536 1.32777 96.0976 0.607771 95.1616 0.607771C94.2076 0.607771 93.4696 1.36377 93.4696 2.22777C93.4696 3.10977 94.2076 3.84777 95.1616 3.84777C96.0976 3.84777 96.8536 3.14577 96.8536 2.22777ZM96.6376 14.0538V5.08977H93.6856V14.0538H96.6376ZM101.352 8.54577C101.424 7.62777 102.252 6.83577 103.386 6.83577C104.556 6.83577 105.15 7.60977 105.15 8.54577H101.352ZM107.868 9.67977C107.868 6.61977 106.014 4.80177 103.368 4.80177C100.65 4.80177 98.5257 6.67377 98.5257 9.60777C98.5257 12.6318 100.758 14.3418 103.458 14.3418C105.276 14.3418 106.68 13.6578 107.526 12.4338L105.474 11.1378C105.078 11.6778 104.43 12.0738 103.494 12.0738C102.432 12.0738 101.442 11.3718 101.352 10.3818H107.85C107.868 10.1658 107.868 9.91377 107.868 9.67977ZM118.554 14.0538V8.50977C118.554 6.70977 117.69 4.83777 115.278 4.83777C114.036 4.83777 113.01 5.53977 112.596 6.33177H112.56V5.08977H109.698V14.0538H112.668V9.19377C112.668 8.16777 113.208 7.26777 114.252 7.26777C115.314 7.26777 115.584 8.16777 115.584 9.15777V14.0538H118.554ZM123.166 8.54577C123.238 7.62777 124.066 6.83577 125.2 6.83577C126.37 6.83577 126.964 7.60977 126.964 8.54577H123.166ZM129.682 9.67977C129.682 6.61977 127.828 4.80177 125.182 4.80177C122.464 4.80177 120.34 6.67377 120.34 9.60777C120.34 12.6318 122.572 14.3418 125.272 14.3418C127.09 14.3418 128.494 13.6578 129.34 12.4338L127.288 11.1378C126.892 11.6778 126.244 12.0738 125.308 12.0738C124.246 12.0738 123.256 11.3718 123.166 10.3818H129.664C129.682 10.1658 129.682 9.91377 129.682 9.67977Z" fill="white"/>
<path d="M12.5646 12.2898L10.4226 10.2738C9.88262 11.0298 8.92862 11.5698 7.72262 11.5698C5.59862 11.5698 4.10462 9.98577 4.10462 7.66377C4.10462 5.41377 5.63462 3.75777 7.77662 3.75777C8.74862 3.75777 9.77462 4.13577 10.3506 4.92777L12.4386 2.83977C11.3766 1.61577 9.45062 0.967771 7.66862 0.967771C3.78062 0.967771 0.756621 3.57777 0.756621 7.66377C0.756621 11.6598 3.69062 14.3958 7.61462 14.3958C9.75662 14.3958 11.4486 13.5858 12.5646 12.2898ZM22.4774 5.08977H19.3454L17.5634 10.8498H17.5094L15.5114 5.08977H12.2354L15.9794 13.9098L15.6914 14.6478C15.4034 15.4218 15.0974 15.8538 14.1794 15.8538C13.8914 15.8538 13.5134 15.7818 13.2254 15.6918L12.9014 18.1758C13.3334 18.2838 13.9634 18.3738 14.5214 18.3738C16.7714 18.3738 17.7434 17.2758 18.4634 15.4038L22.4774 5.08977ZM33.6083 9.53577C33.6083 7.03377 31.9883 4.83777 29.3783 4.83777C28.0643 4.83777 27.1463 5.44977 26.6423 6.04377H26.6063V0.445771H23.6543V14.0538H26.3723V12.8838H26.4083C26.9843 13.7838 28.1543 14.3058 29.3423 14.3058C32.0423 14.3058 33.6083 12.0378 33.6083 9.53577ZM30.7643 9.53577C30.7643 10.7058 30.0443 11.8578 28.6403 11.8578C27.3083 11.8578 26.4803 10.7238 26.4803 9.55377C26.4803 8.41977 27.3083 7.24977 28.6403 7.24977C30.0443 7.24977 30.7643 8.38377 30.7643 9.53577ZM37.8595 8.54577C37.9315 7.62777 38.7595 6.83577 39.8935 6.83577C41.0635 6.83577 41.6575 7.60977 41.6575 8.54577H37.8595ZM44.3755 9.67977C44.3755 6.61977 42.5215 4.80177 39.8755 4.80177C37.1575 4.80177 35.0335 6.67377 35.0335 9.60777C35.0335 12.6318 37.2655 14.3418 39.9655 14.3418C41.7835 14.3418 43.1875 13.6578 44.0335 12.4338L41.9815 11.1378C41.5855 11.6778 40.9375 12.0738 40.0015 12.0738C38.9395 12.0738 37.9495 11.3718 37.8595 10.3818H44.3575C44.3755 10.1658 44.3755 9.91377 44.3755 9.67977ZM52.1462 4.90977C52.0022 4.85577 51.7502 4.83777 51.5162 4.83777C50.4182 4.83777 49.5362 5.48577 49.0862 6.38577H49.0502V5.08977H46.2062V14.0538H49.1582V9.44577C49.1582 8.70777 49.6802 7.41177 51.2642 7.41177C51.4982 7.41177 51.7502 7.42977 52.0202 7.50177L52.1462 4.90977ZM69.1289 14.0538V1.30977H66.0509V6.13377H61.0829V1.30977H58.0049V14.0538H61.0829V8.72577H66.0509V14.0538H69.1289ZM80.661 5.08977H77.529L75.747 10.8498H75.693L73.695 5.08977H70.419L74.163 13.9098L73.875 14.6478C73.587 15.4218 73.281 15.8538 72.363 15.8538C72.075 15.8538 71.697 15.7818 71.409 15.6918L71.085 18.1758C71.517 18.2838 72.147 18.3738 72.705 18.3738C74.955 18.3738 75.927 17.2758 76.647 15.4038L80.661 5.08977ZM91.3059 13.2078V5.08977H88.5159V6.24177H88.4799C87.8499 5.28777 86.7339 4.83777 85.6179 4.83777C82.9179 4.83777 81.3519 7.05177 81.3519 9.53577C81.3519 12.0198 82.9179 14.1438 85.6359 14.1438C86.8239 14.1438 87.7959 13.6758 88.3539 12.9558H88.4079V13.4958C88.4079 14.9898 87.5979 15.9978 85.8699 15.9978C84.8619 15.9978 83.7639 15.6198 82.8999 14.8638L81.4239 16.9698C82.6299 17.8698 84.4659 18.3738 86.0319 18.3738C89.2179 18.3738 91.3059 16.7178 91.3059 13.2078ZM88.4979 9.51777C88.4979 10.7418 87.6699 11.8038 86.3199 11.8038C84.9879 11.8038 84.2139 10.7058 84.2139 9.51777C84.2139 8.27577 84.9879 7.24977 86.3199 7.24977C87.6519 7.24977 88.4979 8.29377 88.4979 9.51777ZM96.8536 2.22777C96.8536 1.32777 96.0976 0.607771 95.1616 0.607771C94.2076 0.607771 93.4696 1.36377 93.4696 2.22777C93.4696 3.10977 94.2076 3.84777 95.1616 3.84777C96.0976 3.84777 96.8536 3.14577 96.8536 2.22777ZM96.6376 14.0538V5.08977H93.6856V14.0538H96.6376ZM101.352 8.54577C101.424 7.62777 102.252 6.83577 103.386 6.83577C104.556 6.83577 105.15 7.60977 105.15 8.54577H101.352ZM107.868 9.67977C107.868 6.61977 106.014 4.80177 103.368 4.80177C100.65 4.80177 98.5257 6.67377 98.5257 9.60777C98.5257 12.6318 100.758 14.3418 103.458 14.3418C105.276 14.3418 106.68 13.6578 107.526 12.4338L105.474 11.1378C105.078 11.6778 104.43 12.0738 103.494 12.0738C102.432 12.0738 101.442 11.3718 101.352 10.3818H107.85C107.868 10.1658 107.868 9.91377 107.868 9.67977ZM118.554 14.0538V8.50977C118.554 6.70977 117.69 4.83777 115.278 4.83777C114.036 4.83777 113.01 5.53977 112.596 6.33177H112.56V5.08977H109.698V14.0538H112.668V9.19377C112.668 8.16777 113.208 7.26777 114.252 7.26777C115.314 7.26777 115.584 8.16777 115.584 9.15777V14.0538H118.554ZM123.166 8.54577C123.238 7.62777 124.066 6.83577 125.2 6.83577C126.37 6.83577 126.964 7.60977 126.964 8.54577H123.166ZM129.682 9.67977C129.682 6.61977 127.828 4.80177 125.182 4.80177C122.464 4.80177 120.34 6.67377 120.34 9.60777C120.34 12.6318 122.572 14.3418 125.272 14.3418C127.09 14.3418 128.494 13.6578 129.34 12.4338L127.288 11.1378C126.892 11.6778 126.244 12.0738 125.308 12.0738C124.246 12.0738 123.256 11.3718 123.166 10.3818H129.664C129.682 10.1658 129.682 9.91377 129.682 9.67977Z" fill="url(#paint0_linear)"/>
<defs>
<linearGradient id="paint0_linear" x1="3.43448" y1="2.08562" x2="130.699" y2="18.5101" gradientUnits="userSpaceOnUse">
<stop stop-color="#00F0FF"/>
<stop offset="1" stop-color="#7DDC82"/>
</linearGradient>
</defs>
</svg>
